HIERARCHY
ROOT Hips
{
	OFFSET 0.000000 0.000000 0.000000 
	CHANNELS 6 Xposition Yposition Zposition Zrotation Yrotation Xrotation
	JOINT LeftUpLeg
	{
		OFFSET 1.363060 -1.794630 0.839290 
		CHANNELS 3 Zrotation Yrotation Xrotation
		JOINT LeftLeg
		{
			OFFSET 2.448110 -6.726130 0.000000 
			CHANNELS 3 Zrotation Yrotation Xrotation
			JOINT LeftFoot
			{
				OFFSET 2.562200 -7.039590 0.000000 
				CHANNELS 3 Zrotation Yrotation Xrotation
				JOINT LeftToeBase
				{
					OFFSET 0.157640 -0.433110 2.322550 
					CHANNELS 3 Zrotation Yrotation Xrotation
					End Site
					{
						OFFSET 0.000000 0.000000 0.000000 
					}
				}
			}
		}
	}
	JOINT RightUpLeg
	{
		OFFSET -1.305520 -1.794630 0.839290 
		CHANNELS 3 Zrotation Yrotation Xrotation
		JOINT RightLeg
		{
			OFFSET -2.542530 -6.985550 0.000000 
			CHANNELS 3 Zrotation Yrotation Xrotation
			JOINT RightFoot
			{
				OFFSET -2.568260 -7.056230 0.000000 
				CHANNELS 3 Zrotation Yrotation Xrotation
				JOINT RightToeBase
				{
					OFFSET -0.164730 -0.452590 2.363150 
					CHANNELS 3 Zrotation Yrotation Xrotation
					End Site
					{
						OFFSET 0.000000 0.000000 0.000000 
					}
				}
			}
		}
	}
	JOINT Spine
	{
		OFFSET 0.028270 2.035590 -0.193380 
		CHANNELS 3 Zrotation Yrotation Xrotation
		JOINT Spine1
		{
			OFFSET 0.056720 2.048850 -0.042750 
			CHANNELS 3 Zrotation Yrotation Xrotation
			JOINT Neck1
			{
				OFFSET -0.054170 1.746240 0.172020 
				CHANNELS 3 Zrotation Yrotation Xrotation
				JOINT Head
				{
					OFFSET 0.104070 1.761360 -0.123970 
					CHANNELS 3 Zrotation Yrotation Xrotation
					End Site
					{
						OFFSET 0.000000 0.000000 0.000000 
					}
				}
			}
			JOINT LeftArm
			{
				OFFSET 3.362410 1.200890 -0.311210 
				CHANNELS 3 Zrotation Yrotation Xrotation
				JOINT LeftForeArm
				{
					OFFSET 4.983000 -0.000000 -0.000000 
					CHANNELS 3 Zrotation Yrotation Xrotation
					JOINT LeftHand
					{
						OFFSET 3.483560 -0.000000 -0.000000 
						CHANNELS 3 Zrotation Yrotation Xrotation
						JOINT LeftHandIndex1
						{
							OFFSET 0.715260 -0.000000 -0.000000 
							CHANNELS 3 Zrotation Yrotation Xrotation
							End Site
							{
								OFFSET 0.000000 0.000000 0.000000 
							}
						}
					}
				}
			}
			JOINT RightArm
			{
				OFFSET -3.136600 1.374050 -0.404650 
				CHANNELS 3 Zrotation Yrotation Xrotation
				JOINT RightForeArm
				{
					OFFSET -5.241900 -0.000000 -0.000000 
					CHANNELS 3 Zrotation Yrotation Xrotation
					JOINT RightHand
					{
						OFFSET -3.444170 -0.000000 -0.000000 
						CHANNELS 3 Zrotation Yrotation Xrotation
						JOINT RightHandIndex1
						{
							OFFSET -0.622530 -0.000000 -0.000000 
							CHANNELS 3 Zrotation Yrotation Xrotation
							End Site
							{
								OFFSET 0.000000 0.000000 0.000000 
							}
						}
					}
				}
			}
		}
	}
}
MOTION
Frames: 18
Frame Time: 0.041667
9.580624 23.950116 -15.852726 9.242663 1.994941 -90.636382 -1.915530 -13.594417 -87.688467 12.391790 19.788463 67.474303 39.185469 8.900869 -167.306532 1.256300 -7.105700 -20.028800 -2.549558 22.419279 -89.783006 -12.760891 -18.465422 69.280748 140.439953 -2.584561 -176.601563 -0.562100 4.802000 -13.344600 0.551301 4.575870 -0.067800 2.000258 2.174909 0.476755 7.320600 -4.207636 -7.403223 3.608900 -1.872200 -0.277700 -80.358217 -7.031219 38.699087 47.422553 -47.110760 -19.257647 -1.830313 0.448097 -75.396592 -7.125000 0.000000 0.000000 79.013300 4.775414 36.991333 -49.504138 47.019093 -16.195796 0.153561 -1.755225 -54.339874 7.125000 0.000000 0.000000 
9.573883 24.239209 -15.874659 8.085687 4.272019 -104.603568 -3.950940 -12.798701 -85.752987 11.568033 19.475424 64.850154 39.219788 8.942411 -168.507582 1.806800 -8.451500 -24.093900 -3.073407 22.307970 -87.287809 -12.540656 -18.368947 68.574214 140.449452 -2.983031 -176.776331 -0.481400 4.449400 -12.344500 0.712214 5.086119 -0.012286 1.691772 2.444172 -1.587507 5.743274 -3.832224 -6.768107 3.031100 -1.682900 0.440000 -84.861310 -7.536490 47.298131 50.465218 -48.639363 -22.155526 -1.634114 0.235666 -76.175779 -7.125000 0.000000 0.000000 83.085635 3.479056 36.317855 -53.158515 49.472346 -19.849408 -0.203146 -2.629368 -66.406088 7.125000 0.000000 0.000000 
9.551308 24.637648 -15.938319 8.336017 2.258919 -115.696453 0.435981 -11.455100 -87.589870 10.677968 19.067084 62.050719 39.189377 9.780404 -168.950870 2.220300 -9.310600 -26.771900 0.132578 23.978062 -86.546546 -12.276182 -18.139194 67.440313 140.423493 -2.487630 -176.906788 -0.625600 5.061300 -14.083500 1.118845 5.539542 -0.293084 0.537135 2.832756 -3.166327 -4.613367 0.664073 -10.927707 -1.731700 0.270600 -1.683900 -88.131275 -7.448694 52.297013 52.129895 -49.337329 -23.847831 -1.493607 -0.054385 -76.438781 -7.125000 0.000000 0.000000 84.687816 0.088053 37.363129 -59.926928 51.771513 -24.005865 0.116218 -2.281664 -69.239066 7.125000 0.000000 0.000000 
9.535794 25.062835 -16.024448 6.847241 4.309906 -127.540651 0.221238 -11.681796 -87.205116 10.038055 18.702251 59.887001 39.161867 10.246792 -168.397461 1.446800 -7.603700 -21.516700 -1.117627 25.123813 -86.422965 -11.483101 -17.610916 64.657364 140.383009 -3.461535 -178.711952 -0.728400 5.453100 -15.205500 1.000622 5.296618 -0.358591 0.927806 2.716090 -3.442939 5.138456 -3.663258 -13.979142 2.957200 -1.518400 -2.510300 -88.592843 -6.896186 49.825187 53.437141 -49.833322 -24.703816 -1.375049 -0.161654 -78.284609 -7.125000 0.000000 0.000000 81.883974 -2.048487 40.983980 -64.027704 52.566411 -26.854062 -1.019750 -0.968264 -61.630432 7.125000 0.000000 0.000000 
9.542107 25.527182 -16.222384 6.797996 4.551077 -138.565326 1.982846 -11.529343 -87.993143 9.175843 18.178358 56.998822 39.168238 9.885223 -168.914690 2.013000 -8.893200 -25.461700 0.283444 26.077088 -86.422082 -11.192931 -17.387145 63.497027 140.356607 -3.262547 -179.457256 -0.889100 6.010400 -16.814700 1.112792 5.167567 0.081931 0.651241 2.670449 -1.750747 6.013869 -4.914096 -14.402825 3.230700 -2.041100 -1.870900 -86.180788 -6.785839 48.819447 53.739812 -49.928635 -24.789280 -1.406868 -0.092049 -80.554121 -7.125000 0.000000 0.000000 77.709663 -0.897904 43.940277 -64.533920 52.657760 -27.444957 -1.183483 -0.305447 -62.112410 7.125000 0.000000 0.000000 
9.490109 25.960180 -16.520678 4.417552 6.172738 -149.531197 1.208308 -11.345019 -87.936151 8.840569 17.968514 55.844521 39.176135 9.197738 -168.146307 1.481500 -7.690300 -21.777400 -0.119149 25.094931 -87.347224 -11.172843 -17.429795 63.399191 140.304081 -1.931369 179.495374 -0.854700 5.896000 -16.483000 1.035009 4.910434 -0.322799 1.340245 2.488400 -2.781925 6.356703 -4.796199 -14.448756 3.269300 -1.983700 -1.609500 -83.169474 -5.753866 51.879055 59.339914 -51.707444 -29.352600 -1.411531 0.010886 -79.539610 -7.125000 0.000000 0.000000 74.823619 -0.355727 44.862102 -61.274165 51.703877 -25.234671 -1.282965 0.057410 -67.429151 7.125000 0.000000 0.000000 
9.474809 26.292712 -16.923825 2.435005 6.211181 -163.160415 -0.490299 -11.977138 -84.478278 8.858468 17.979333 55.837593 39.169949 9.623890 -168.160872 1.205900 -6.966800 -19.617000 2.225830 23.960355 -83.379360 -11.445205 -17.724599 64.337612 140.357270 -2.474878 -179.801108 -0.441900 4.265300 -11.824100 1.061319 4.410668 -0.600004 1.339739 2.247791 -4.670836 4.764376 -4.554473 -15.249215 2.385900 -1.936200 -1.843400 -82.706800 -5.695120 52.542897 56.117392 -50.546476 -26.690251 -1.511815 0.035370 -73.536584 -7.125000 0.000000 0.000000 73.581205 -0.324439 47.683008 -60.231542 50.909239 -23.704010 -0.472635 -1.302937 -70.121868 7.125000 0.000000 0.000000 
9.471171 26.580842 -17.443380 -0.334174 6.616306 -174.938791 -2.887602 -12.043974 -82.352477 8.849049 17.976493 55.711380 39.162669 10.261281 -168.536603 1.089700 -6.634300 -18.636200 2.325363 23.019170 -82.090396 -11.675659 -17.936731 65.202515 140.392493 -3.161060 179.984057 -0.761100 5.571600 -15.546300 0.992984 4.513859 -0.695284 1.503396 2.309023 -5.322637 4.950358 -4.275065 -17.450286 2.562400 -1.739100 -2.558900 -83.107986 -6.307732 52.149584 53.863253 -49.685468 -24.791385 -1.513378 0.040240 -75.326669 -7.125000 0.000000 0.000000 74.361501 -0.585058 46.124381 -59.341924 50.604594 -23.003285 -0.627562 -1.087385 -69.892121 7.125000 0.000000 0.000000 
9.518675 26.748820 -18.045211 -1.715202 7.455756 171.854696 -4.270033 -11.493000 -78.660149 9.203778 18.267791 56.997214 39.210893 9.443868 -168.832177 1.634100 -8.058300 -22.891200 4.525821 23.346326 -77.707693 -12.561647 -18.382671 68.019929 140.363746 -1.700118 179.051943 -0.979100 6.298900 -17.654100 0.975376 5.042311 -0.871302 0.419235 2.143309 -6.773230 4.338905 -4.173936 -18.267723 2.339400 -1.665600 -2.841900 -84.434719 -5.605334 50.782208 53.073499 -49.305404 -24.129161 -1.502617 0.008302 -75.527958 -7.125000 0.000000 0.000000 76.551321 -2.282628 42.808756 -59.851771 50.751728 -23.263726 -0.606884 -1.126115 -66.741116 7.125000 0.000000 0.000000 
9.356047 26.719825 -18.618904 -9.075124 14.468574 152.136368 -8.288053 0.022912 -67.139565 10.821397 19.663198 62.819531 39.399781 7.619006 -172.653197 1.872700 -8.595700 -24.538600 10.040784 32.888165 -64.133503 -14.241581 -18.810249 73.117410 140.317526 -0.338477 178.328660 -0.766100 5.589500 -15.597800 0.723339 9.584411 -1.279378 1.544418 3.800327 -9.387439 4.804750 -4.145207 -17.995631 2.476900 -1.661000 -2.394100 -85.567454 -5.941354 48.828088 53.059594 -49.328779 -24.071523 -1.519514 -0.012164 -73.008854 -7.125000 0.000000 0.000000 78.390706 -2.595631 39.591332 -60.356617 50.803931 -23.481745 -0.508284 -1.108491 -64.505062 7.125000 0.000000 0.000000 
9.324591 26.675316 -19.278833 -15.807974 13.769429 135.189830 -11.729509 4.602273 -58.820301 12.565709 20.409413 68.386478 39.441537 5.010158 178.280143 7.395700 -15.656300 -50.355500 13.209267 35.261332 -54.444775 -15.914226 -19.574384 78.290586 140.283806 0.506098 176.986391 -0.482900 4.456300 -12.364200 0.545886 11.104553 -1.226962 1.512046 4.276183 -9.783086 5.041119 -4.487657 -17.337296 2.473500 -1.813700 -2.034300 -86.314620 -7.532144 47.304782 52.291832 -49.111295 -23.398116 -1.528748 0.067511 -70.202587 -7.125000 0.000000 0.000000 79.164255 -1.360948 38.275825 -58.859555 50.431979 -22.502660 -0.593622 -1.234731 -61.436089 7.125000 0.000000 0.000000 
9.317102 26.608125 -19.975352 -19.227455 10.182505 121.629010 -13.350804 5.082634 -53.326943 14.529272 20.893946 74.288081 39.695870 1.237753 174.163689 6.941700 -15.282600 -48.653500 16.483372 34.391763 -47.993305 -17.866279 -20.252816 84.133515 140.437885 -1.075542 177.518857 -0.493700 4.505100 -12.502300 0.558566 11.219916 -1.515393 1.702237 4.346243 -10.703855 4.553755 -4.951394 -15.672531 2.373900 -2.598100 -1.707600 -87.074809 -8.398589 46.157207 50.314193 -48.261073 -21.897540 -1.594107 0.026258 -67.627880 -7.125000 0.000000 0.000000 79.259624 -0.626035 37.846006 -56.139797 49.384890 -20.531374 -0.625804 -1.257520 -58.438160 7.125000 0.000000 0.000000 
9.313678 26.489684 -20.745376 -20.054868 5.620897 111.736044 -14.509474 3.016254 -51.854337 16.431742 21.222599 79.835347 40.347430 -3.924267 172.769857 7.117800 -15.430300 -49.318300 17.762052 32.367203 -45.917517 -20.937574 -20.292116 92.055373 133.095452 38.448684 156.232840 -0.859900 5.913200 -16.532900 0.432630 9.866571 -1.917279 1.403718 4.022316 -11.650293 4.009179 -4.694062 -13.237938 2.069200 -2.456700 -1.282600 -86.788658 -9.436110 45.777486 47.071058 -46.567694 -19.418549 -1.705902 0.044527 -64.598196 -7.125000 0.000000 0.000000 80.251907 -0.070235 36.832813 -52.703504 47.896031 -18.121062 -0.692850 -1.256060 -54.740647 7.125000 0.000000 0.000000 
9.387824 26.304481 -21.598639 -16.762413 1.820248 104.911781 -13.883702 -4.353024 -53.364364 19.009211 21.615220 87.773849 51.355022 -44.465775 158.250654 4.358000 -12.622200 -37.970100 18.024868 28.056925 -47.747897 -21.378271 -20.547373 95.496919 134.093683 66.803340 97.523102 -1.133300 6.761300 -19.010000 -0.260699 6.031709 -1.830437 -2.287366 2.793272 -10.639275 5.087997 -4.686290 -9.824631 2.202400 -2.425100 -0.077200 -84.104173 -13.330168 46.517503 43.065741 -44.078419 -16.304744 -1.793053 0.306175 -62.993709 -7.125000 0.000000 0.000000 83.256353 2.406284 34.101475 -48.640373 46.317838 -15.534547 -0.679044 -1.401091 -50.664473 7.125000 0.000000 0.000000 
9.435542 25.980722 -22.550550 -14.204880 -0.344530 101.382656 -11.390050 -7.434913 -61.448736 20.582441 21.494829 92.179292 -148.910741 -81.445337 86.286840 1.322700 7.283800 20.558800 17.122451 26.742496 -53.967919 -20.356708 -20.760093 88.659451 -177.622561 45.024195 27.683917 -0.900300 6.047200 -16.921400 -0.227040 3.155881 -1.259914 -2.018315 1.712229 -8.461757 5.442620 -3.731852 -6.771777 2.809600 -1.794500 1.075200 -85.175952 -13.166789 42.157525 42.185880 -43.693447 -15.565454 -1.755274 0.547096 -59.671052 -7.125000 0.000000 0.000000 82.365773 4.121489 33.465519 -45.377323 44.498331 -13.677849 -0.640830 -1.734740 -47.908383 7.125000 0.000000 0.000000 
9.478981 25.565378 -23.455062 -10.739982 -2.164090 96.238561 -8.798843 -11.500636 -66.952866 19.432033 21.270162 88.936556 -4.501678 -34.114733 7.368486 6.864100 15.216400 48.358400 16.551983 25.018354 -57.241742 -15.265078 -19.854056 76.578134 179.581804 -0.386628 14.934753 -1.452200 7.617200 -21.557200 -0.102077 0.147111 -1.238365 -1.674487 0.529978 -7.838217 5.096487 -2.551968 -3.392718 3.137800 -1.153500 2.489500 -86.482942 -13.654747 37.208974 40.459107 -42.619122 -14.234855 -1.723158 0.702556 -57.090939 -7.125000 0.000000 0.000000 80.739748 4.985331 32.903150 -42.775759 42.793211 -12.424148 -0.682015 -2.141738 -46.449421 7.125000 0.000000 0.000000 
9.491071 24.952098 -24.306293 -8.899094 -3.274538 89.807906 -10.885779 -8.879916 -69.242672 16.028292 21.241996 80.053199 0.202324 12.885735 3.427856 9.231200 16.954200 56.886200 18.023424 24.802215 -56.171284 -11.868325 -18.464866 65.133741 179.752004 -0.872643 12.524340 -4.240800 12.474200 -37.430800 -0.063137 -1.621722 -1.137835 -1.388656 -0.178206 -7.124074 5.366395 -1.617282 0.322251 3.255500 -0.672100 3.525700 -86.663338 -13.794136 33.526170 39.562673 -42.025057 -13.490073 -1.686285 0.821918 -55.775737 -7.125000 0.000000 0.000000 78.786049 5.815278 31.948961 -40.151040 40.928210 -11.307521 -0.858484 -2.440734 -46.051210 7.125000 0.000000 0.000000 
9.498989 24.202403 -25.154100 -7.460804 -3.458508 84.621286 -12.882402 -8.788874 -69.788886 13.939694 20.779127 73.791095 0.115954 12.938180 0.620075 10.933400 17.902300 62.565000 19.890168 25.694421 -54.839544 -8.569562 -16.072799 52.659644 -179.732451 -4.155568 17.269373 -2.999800 10.694800 -31.257300 0.119567 -2.368636 -0.319277 -0.624147 -0.569299 -5.340354 4.341350 -0.855042 3.905510 3.023700 -0.395500 4.760600 -87.432657 -15.278970 31.020895 37.504778 -40.605709 -12.099253 -1.640825 0.970109 -53.667267 -7.125000 0.000000 0.000000 76.179697 7.028226 29.727610 -37.817193 39.017764 -10.167109 -0.966500 -2.529590 -45.383502 7.125000 0.000000 0.000000 
